<?xml version="1.0" standalone="no"?>
<!DOCTYPE svg PUBLIC "-//W3C//DTD SVG 20010904//EN"
 "http://www.w3.org/TR/2001/REC-SVG-20010904/DTD/svg10.dtd">
<svg version="1.0" xmlns="http://www.w3.org/2000/svg"
 width="260.000000pt" height="260.000000pt" viewBox="0 0 260.000000 260.000000"
 preserveAspectRatio="xMidYMid meet">
<metadata>
Created by potrace 1.11, written by Peter Selinger 2001-2013
</metadata>
<g transform="translate(0.000000,260.000000) scale(0.100000,-0.100000)"
fill="#000000" stroke="none">
<path d="M670 2485 c-10 -12 -11 -58 -5 -213 17 -402 11 -445 -78 -564 -73
-96 -115 -190 -129 -288 l-12 -79 -45 -11 c-72 -17 -204 -59 -221 -70 -10 -6
2 -7 37 -3 80 9 119 -3 164 -49 37 -38 39 -44 39 -100 0 -33 -5 -69 -11 -81
-15 -30 -50 -67 -62 -67 -6 0 -1 10 10 22 33 37 43 64 43 118 0 114 -91 166
-223 126 -27 -8 -49 -10 -54 -5 -6 6 -28 -5 -56 -26 -26 -20 -47 -37 -47 -39
0 -24 47 -207 65 -256 47 -122 85 -162 185 -196 119 -41 568 -13 858 53 127
29 157 31 220 14 79 -22 96 -72 40 -114 -55 -42 -270 -136 -472 -209 -106 -38
-371 -110 -452 -123 -39 -6 -43 -9 -53 -50 -25 -100 -1 -162 74 -191 51 -19
76 -17 275 20 124 23 304 47 565 76 308 35 498 79 840 197 l160 55 65 67 c116
120 167 267 157 456 -9 176 -53 288 -202 511 l-85 128 30 131 c70 299 74 322
73 485 0 86 -3 168 -7 183 -14 58 -108 52 -164 -11 -46 -53 -216 -279 -302
-402 l-73 -106 -46 23 c-102 49 -233 74 -446 84 l-200 9 -42 47 c-53 60 -95
123 -166 243 -30 52 -76 123 -101 158 -44 60 -48 62 -90 62 -27 0 -48 -6 -56
-15z m467 -706 c15 -5 43 -25 61 -42 49 -46 125 -155 117 -167 -4 -6 -28 20
-55 58 -54 77 -109 129 -146 138 -84 21 -208 -96 -272 -255 -16 -40 -33 -72
-38 -71 -29 4 62 186 128 257 76 81 140 107 205 82z m-411 -105 c16 -23 16
-29 1 -82 -20 -71 -65 -172 -78 -172 -14 0 -12 9 26 95 40 92 46 155 16 155
-11 0 -44 -22 -74 -50 -58 -53 -67 -58 -67 -37 0 25 116 113 152 116 4 1 15
-10 24 -25z m-433 -531 c26 -9 47 -21 47 -26 0 -5 -7 -6 -16 -3 -87 33 -153
26 -140 -15 3 -10 9 -28 12 -39 4 -11 2 -20 -4 -20 -6 0 -17 19 -24 41 -11 39
-10 43 11 60 29 23 53 24 114 2z m-175 -5 c7 -7 12 -30 12 -52 0 -46 -17 -39
-22 9 -2 24 -8 31 -30 33 -16 2 -28 8 -28 13 0 13 54 11 68 -3z"/>
</g>
</svg>
